<?xml version="1.0" standalone="no"?>
<!DOCTYPE svg PUBLIC "-//W3C//DTD SVG 20010904//EN"
 "http://www.w3.org/TR/2001/REC-SVG-20010904/DTD/svg10.dtd">
<svg version="1.0" xmlns="http://www.w3.org/2000/svg"
 width="700.000000pt" height="700.000000pt" viewBox="0 0 700.000000 700.000000"
 preserveAspectRatio="xMidYMid meet">
<metadata>
Created by potrace 1.11, written by Peter Selinger 2001-2013
</metadata>
<g transform="translate(0.000000,700.000000) scale(0.100000,-0.100000)"
fill="#000000" stroke="none">
<path d="M3448 6859 c-130 -21 -240 -76 -301 -151 -62 -76 -89 -154 -102 -297
-3 -34 -7 -87 -10 -119 -3 -32 -7 -123 -10 -203 -2 -79 -7 -205 -10 -279 -3
-74 -8 -184 -10 -245 -8 -190 -17 -377 -20 -394 -3 -18 -4 -18 -90 -1 -95 19
-162 9 -252 -35 -79 -39 -187 -100 -211 -119 -87 -69 -175 -197 -184 -268 -2
-15 -6 -29 -8 -32 -3 -2 -32 -5 -65 -7 -177 -7 -379 -127 -442 -260 -50 -106
-68 -288 -67 -664 1 -206 5 -278 19 -345 9 -47 18 -121 20 -165 4 -88 13 -362
20 -580 6 -198 17 -368 30 -465 11 -82 15 -106 20 -130 2 -14 10 -50 16 -80
13 -65 58 -228 70 -250 4 -8 17 -40 29 -70 44 -110 121 -219 207 -291 31 -26
31 -29 38 -138 4 -62 8 -239 9 -394 2 -260 4 -286 24 -339 38 -105 113 -194
207 -248 46 -26 210 -75 320 -94 100 -18 146 -26 194 -31 30 -4 61 -8 70 -10
94 -18 748 -27 915 -12 103 8 270 32 371 52 39 8 83 16 98 19 147 25 293 118
352 224 53 94 57 131 60 477 2 176 5 331 8 345 3 14 8 43 11 65 13 106 46 196
189 515 35 80 85 204 110 275 81 232 133 369 160 422 35 68 75 189 93 277 10
52 12 118 9 246 -3 96 -7 186 -9 200 -2 14 -7 66 -10 115 -4 50 -9 115 -11
145 -3 30 -7 89 -10 130 -9 114 -22 249 -32 315 -3 22 -7 49 -8 61 -16 120
-86 294 -159 391 -44 59 -51 79 -102 288 -43 172 -114 287 -226 363 -26 18
-51 32 -56 32 -5 0 -22 30 -38 68 -24 55 -29 83 -31 152 -1 80 -10 196 -17
236 -2 11 -7 44 -10 74 -4 30 -9 73 -12 95 -3 22 -7 47 -9 55 -2 8 -7 42 -10
75 -3 33 -8 67 -10 75 -10 37 -18 123 -20 215 -5 185 -63 334 -175 445 -84 84
-138 105 -265 104 -56 -1 -107 -7 -134 -17 l-45 -16 -60 63 c-68 70 -91 86
-168 117 -58 24 -177 32 -260 18z m209 -200 c57 -27 104 -85 160 -191 25 -49
48 -88 52 -88 4 0 23 16 42 36 69 73 192 111 272 85 52 -17 95 -65 135 -151
33 -70 36 -82 37 -180 2 -108 10 -194 25 -290 5 -30 12 -73 14 -95 3 -22 15
-105 27 -185 12 -80 22 -201 23 -270 2 -113 5 -132 33 -202 47 -118 78 -165
126 -189 117 -59 154 -115 202 -296 74 -280 68 -264 121 -326 56 -66 113 -197
129 -297 3 -19 7 -42 10 -50 2 -8 6 -46 10 -83 3 -37 8 -76 10 -85 1 -9 6 -62
10 -117 4 -55 9 -113 10 -130 2 -16 6 -73 10 -125 3 -52 8 -115 10 -140 33
-388 25 -470 -72 -680 -19 -41 -62 -147 -94 -235 -33 -88 -80 -216 -106 -285
-25 -69 -72 -181 -103 -250 -59 -127 -111 -253 -135 -325 -17 -53 -32 -122
-39 -190 -3 -22 -8 -69 -12 -105 -4 -36 -8 -193 -8 -350 l-1 -285 -28 -48
c-49 -83 -109 -115 -287 -151 -104 -21 -128 -25 -180 -31 -25 -3 -54 -8 -65
-10 -11 -2 -54 -7 -95 -10 -41 -3 -97 -8 -125 -10 -63 -6 -438 -6 -525 0 -36
2 -110 7 -165 10 -160 9 -228 19 -430 62 -66 14 -140 35 -164 46 -55 26 -108
80 -134 137 -19 42 -21 66 -22 395 -3 453 -8 489 -87 555 -141 120 -201 228
-257 470 -57 244 -67 363 -86 1025 -8 280 -12 348 -19 381 -4 16 -9 40 -12 54
-27 126 -26 628 2 790 2 14 7 41 10 60 7 46 36 87 90 128 78 61 146 79 311 83
59 1 76 6 92 23 23 24 51 97 51 131 0 63 64 153 145 206 127 82 184 109 232
109 64 0 109 -14 166 -50 l47 -30 65 26 c36 15 67 29 69 33 2 3 7 35 10 71 4
36 9 81 11 100 6 54 14 190 20 350 3 80 8 197 10 260 3 63 7 187 10 275 5 151
8 218 20 360 14 165 57 235 162 268 106 34 198 36 260 6z"/>
<path d="M3480 6359 c-37 -15 -78 -58 -89 -93 -5 -17 -12 -58 -16 -91 -4 -32
-8 -67 -10 -76 -2 -10 -6 -55 -9 -101 -4 -45 -9 -112 -11 -148 -3 -36 -7 -153
-11 -260 -3 -107 -7 -211 -9 -230 -2 -19 -7 -73 -10 -120 -4 -47 -9 -94 -11
-105 -11 -56 -3 -385 12 -465 3 -14 7 -70 10 -125 5 -108 21 -198 34 -190 4 2
5 25 3 50 -3 26 -1 45 5 45 5 0 31 -26 58 -57 64 -78 114 -125 158 -148 20
-11 36 -22 36 -26 0 -4 -34 -6 -75 -5 -63 1 -77 -2 -96 -20 -29 -29 -38 -79
-24 -140 6 -28 8 -59 4 -70 -15 -38 -9 -55 23 -68 21 -9 41 -11 60 -5 52 14
78 -10 36 -32 -33 -17 -38 -30 -22 -54 19 -30 24 -95 9 -125 -14 -28 -4 -70
17 -70 7 0 72 32 143 71 72 39 158 82 193 95 55 21 63 22 69 8 3 -8 1 -20 -6
-27 -25 -25 -5 -23 100 13 118 41 151 41 157 2 4 -24 -17 -37 -68 -46 -61 -9
-180 -54 -256 -96 -40 -22 -78 -40 -84 -40 -6 0 -16 14 -22 31 -9 28 -14 30
-40 25 -36 -7 -114 -63 -151 -108 -27 -32 -33 -49 -57 -158 -35 -157 -147
-271 -268 -273 -55 0 -129 30 -178 73 -40 35 -47 36 -65 13 -8 -9 -50 -40 -94
-69 -44 -29 -98 -70 -120 -91 -60 -58 -156 -135 -163 -129 -2 3 3 27 13 53 21
55 163 204 255 268 63 43 70 52 63 73 -4 10 -16 13 -44 9 -49 -6 -53 15 -9 38
33 17 36 25 18 43 -8 8 -20 7 -46 -3 -43 -19 -82 -19 -82 -2 0 13 15 22 73 46
15 6 27 15 27 21 0 22 -58 7 -115 -30 -82 -55 -148 -76 -184 -60 -64 30 -176
20 -315 -29 -77 -27 -90 -27 -127 7 l-32 28 91 27 c97 30 123 50 114 92 -9 52
-131 134 -198 135 -77 0 -141 -148 -96 -222 27 -44 35 -105 22 -164 -17 -71
-19 -232 -5 -364 6 -63 10 -181 9 -262 -2 -206 43 -452 105 -567 l19 -35 14
30 c9 16 23 56 33 89 9 32 23 68 32 80 13 18 14 13 8 -55 -3 -41 -10 -102 -14
-135 -5 -33 -7 -62 -6 -63 2 -2 13 28 24 66 23 77 59 134 61 97 2 -35 -1 -146
-5 -166 -4 -21 5 -25 23 -7 8 8 15 8 26 -1 12 -10 14 -41 13 -159 -2 -167 9
-222 54 -274 l30 -33 -5 45 c-3 25 -8 62 -12 82 -7 42 1 88 15 88 9 0 13 -13
25 -75 31 -153 67 -217 139 -244 43 -16 50 -13 27 12 -40 42 -61 86 -58 119
l3 33 34 -49 c52 -75 119 -135 186 -167 33 -16 61 -25 63 -21 1 4 -6 25 -17
46 -10 22 -16 47 -14 56 4 14 14 8 52 -30 55 -55 116 -75 244 -79 44 -1 45
-14 4 -45 -24 -17 -45 -20 -181 -22 -209 -4 -294 16 -411 96 -22 15 -54 35
-72 44 -29 14 -33 14 -47 0 -9 -9 -14 -19 -11 -23 9 -15 17 -187 18 -411 2
-224 2 -225 29 -270 52 -89 132 -121 393 -154 206 -27 726 -39 895 -22 47 5
97 10 111 11 23 3 81 11 129 20 67 12 219 38 237 40 35 5 90 43 121 83 31 40
30 37 19 322 -3 91 -13 199 -20 241 -8 42 -12 100 -10 130 11 140 10 144 -19
147 -36 4 -73 -31 -57 -56 9 -14 -3 -32 -78 -109 -49 -51 -95 -93 -103 -93 -8
0 -28 -7 -45 -16 -41 -21 -74 -20 -114 4 -41 25 -53 21 -111 -34 -42 -40 -60
-48 -102 -45 -28 2 -23 53 8 85 15 14 31 26 36 26 16 0 318 154 318 162 0 14
-22 9 -101 -22 -92 -35 -127 -43 -199 -43 -68 0 -127 16 -172 47 -20 13 -56
26 -81 29 -69 9 -112 33 -163 93 -29 33 -56 55 -75 59 -61 14 -106 71 -140
180 -8 26 -31 57 -66 90 -74 69 -94 151 -69 284 12 62 80 241 92 241 9 0 -2
-80 -27 -195 -23 -112 -21 -181 8 -242 l18 -38 3 40 c3 39 16 65 32 65 9 0 26
-70 34 -136 9 -77 29 -139 59 -182 16 -24 31 -42 33 -40 2 3 6 24 9 49 10 80
16 76 93 -62 36 -63 97 -133 111 -125 4 3 6 17 4 31 -14 69 27 98 70 50 26
-28 160 -75 218 -75 33 0 41 5 70 45 18 25 38 45 45 45 6 0 24 -16 38 -35 33
-42 66 -48 58 -10 -3 21 0 25 18 25 36 0 179 39 260 71 108 43 141 77 204 212
45 94 63 122 105 158 47 41 52 49 67 119 11 50 32 102 63 155 160 274 235 523
235 785 0 59 -13 209 -18 219 -2 3 -6 29 -10 56 -3 28 -8 59 -10 71 -4 21 -12
87 -21 174 -19 180 -32 290 -40 330 -3 14 -8 38 -10 54 -8 41 -30 79 -107 188
l-69 96 -55 -5 c-46 -5 -59 -2 -89 18 -69 47 -115 228 -85 334 10 36 15 43 26
34 20 -17 43 -100 40 -147 -6 -98 76 -181 134 -134 l22 17 -36 107 c-47 144
-79 204 -117 224 -29 15 -35 14 -75 -1 -56 -21 -88 -61 -111 -140 -16 -56 -24
-133 -20 -195 15 -201 61 -308 152 -352 25 -12 45 -26 45 -30 0 -5 -10 -28
-21 -51 -32 -61 -68 -172 -81 -247 -15 -88 -14 -245 3 -355 16 -109 16 -128
-4 -181 -13 -34 -14 -52 -5 -105 9 -54 8 -70 -5 -102 -24 -56 -41 -42 -49 39
-3 38 -18 105 -32 149 -14 44 -26 95 -26 114 l0 34 -53 -55 c-77 -79 -104
-117 -116 -165 -7 -25 -20 -47 -32 -54 -22 -11 -69 -5 -69 10 0 14 79 130 114
169 73 80 104 117 101 121 -8 8 -100 -30 -134 -56 -20 -15 -63 -53 -96 -85
-63 -61 -79 -67 -110 -44 -24 18 -42 11 -60 -24 -8 -15 -46 -60 -84 -99 -64
-65 -72 -70 -95 -61 -14 5 -26 13 -26 18 0 14 163 203 226 263 79 75 156 125
298 194 101 49 120 62 132 91 30 71 12 152 -34 155 -30 2 -87 6 -94 8 -14 2
-8 29 8 35 9 3 30 6 48 6 44 0 97 38 108 75 18 63 -1 170 -63 340 -29 81 -32
101 -32 195 1 127 22 215 86 356 25 55 48 119 51 144 l6 45 -22 -37 c-12 -21
-25 -38 -29 -38 -9 0 -19 65 -19 133 0 83 -17 114 -108 192 -55 47 -80 76 -79
89 3 25 49 32 79 12 32 -20 84 -26 104 -12 11 9 17 28 17 62 1 49 -9 168 -18
208 -2 11 -6 39 -9 61 -3 22 -12 82 -21 132 -8 51 -17 123 -20 160 -3 38 -8
97 -10 132 -5 63 -32 127 -73 176 -49 58 -110 70 -185 35 -51 -24 -73 -58 -81
-125 -14 -118 -19 -151 -21 -166 -19 -99 -25 -395 -11 -524 14 -134 16 -156
21 -257 3 -57 7 -116 10 -133 2 -16 7 -82 10 -145 14 -276 27 -347 80 -451 29
-57 33 -71 20 -75 -8 -3 -26 3 -41 15 -14 11 -30 18 -35 15 -13 -7 -11 -38 2
-51 16 -16 4 -43 -20 -43 -19 0 -107 101 -150 171 -22 36 -27 75 -12 98 7 10
18 0 46 -40 l37 -54 -7 45 c-9 63 -13 88 -20 145 -3 28 -8 64 -10 80 -3 17 -9
68 -15 115 -14 111 -20 159 -25 190 -2 14 -7 50 -10 80 -11 92 -16 114 -30
135 -8 11 -22 30 -31 42 -19 26 -27 119 -13 146 6 9 20 17 34 17 49 0 56 22
51 144 -3 61 -11 147 -18 191 -11 72 -15 254 -9 392 5 113 -87 224 -183 222
-23 0 -52 -5 -66 -10z"/>
<path d="M2815 4770 c-83 -28 -155 -72 -211 -129 -30 -29 -54 -57 -54 -62 0
-5 11 -14 24 -19 30 -11 47 -40 53 -93 2 -23 11 -57 19 -76 9 -20 22 -56 31
-81 72 -213 130 -292 246 -329 30 -10 36 -16 27 -26 -6 -7 -22 -16 -36 -19
-14 -4 -22 -11 -18 -17 9 -15 46 -4 130 37 69 33 123 47 124 32 1 -29 -3 -38
-26 -62 -19 -18 -37 -26 -63 -26 -64 0 -94 -25 -116 -98 -6 -21 -4 -23 15 -17
25 8 180 -4 180 -14 0 -14 -57 -39 -102 -44 -26 -3 -57 -11 -70 -18 -21 -12
-21 -13 20 -25 52 -15 112 -54 112 -72 0 -7 -4 -11 -8 -8 -5 3 -25 1 -45 -5
-52 -14 -57 -43 -21 -130 31 -77 45 -96 35 -46 -3 17 -5 39 -5 47 1 8 2 24 3
35 2 30 52 84 89 94 39 12 40 2 6 -38 l-26 -31 54 25 c77 36 113 41 157 20 64
-29 101 -126 77 -203 -4 -12 -3 -22 2 -22 6 0 14 19 18 43 22 129 4 231 -75
416 -43 101 -78 213 -94 301 -3 14 -8 36 -11 50 -3 14 -8 36 -11 50 -51 273
-136 474 -231 546 -44 34 -125 39 -199 14z"/>
<path d="M2225 4341 c-50 -12 -89 -37 -129 -81 -31 -34 -37 -48 -34 -77 4 -53
26 -61 76 -28 24 15 45 25 49 21 4 -3 -1 -29 -11 -56 -10 -27 -15 -54 -11 -60
3 -5 25 -9 48 -8 l42 3 -2 -45 c-1 -25 -3 -64 -4 -88 -2 -32 3 -49 20 -70 12
-15 45 -74 72 -132 64 -132 88 -164 149 -195 116 -59 213 -45 255 35 33 63 10
198 -52 310 -20 36 -50 105 -69 154 -18 48 -44 105 -58 125 -28 40 -91 81
-124 81 -31 0 -33 22 -4 46 30 25 24 40 -24 60 -35 15 -138 17 -189 5z"/>
<path d="M3205 3481 c-66 -29 -78 -80 -34 -142 10 -14 21 -38 25 -53 6 -26 5
-28 -17 -21 -23 6 -42 25 -96 92 -22 26 -22 26 2 -17 36 -66 88 -118 128 -125
40 -8 102 19 161 69 l40 34 -26 23 c-14 13 -30 43 -37 66 -12 44 -60 93 -89
93 -9 0 -35 -9 -57 -19z"/>
<path d="M2343 1925 c0 -8 4 -12 9 -9 4 3 8 9 8 15 0 5 -4 9 -8 9 -5 0 -9 -7
-9 -15z"/>
</g>
</svg>
