<svg xmlns="http://www.w3.org/2000/svg" viewBox="0 0 219.67 125.74"><title>wort_lort_logo</title><path d="M110,47.74h-7.66L96.42,23.89h-.1L90.48,47.74h-7.8l-9.28-35h7.71l5,23.94.69-.1,6.08-23.84h7.22l6,24.14.69,0,5.15-24.19h7.56Z"/><path d="M137,48.18a18.13,18.13,0,1,1,18.15-18.1A18.1,18.1,0,0,1,137,48.18Zm-10.7-18.1A10.65,10.65,0,1,0,137,19.33,10.79,10.79,0,0,0,126.25,30.08Z"/><path d="M178.06,34.79l9.82,13h-9.42l-8.84-12.61h-3.77V47.79h-7.76V12.71h15.8c8.83,0,12.22,5.54,12.22,11.23,0,4.76-2.5,9.57-8.34,10.85Zm-12.21-16.1V29.24h6c3.68,0,6.72-.83,6.72-5.3s-3-5.25-6.72-5.25Z"/><path d="M200.93,19.18H189.79V12.76h29.88v6.47h-11V47.74h-7.7Z"/><path d="M81.5,87.94V53h7.56V81.46h18v6.48Z"/><path d="M126.74,88.63a18.13,18.13,0,1,1,18.15-18.11A18.1,18.1,0,0,1,126.74,88.63ZM116,70.52a10.65,10.65,0,1,0,10.7-10.74A10.79,10.79,0,0,0,116,70.52Z"/><path d="M167.86,75.23l9.81,13h-9.42l-8.83-12.61h-3.78V88.24h-7.75V53.15h15.8c8.83,0,12.21,5.55,12.21,11.24,0,4.76-2.5,9.57-8.34,10.84ZM155.64,59.14V69.69h6c3.68,0,6.72-.84,6.72-5.3s-3-5.25-6.72-5.25Z"/><path d="M181.84,53.15H197c9.08,0,15.9,5.74,15.9,17.32,0,10.16-5.2,17.72-15.9,17.72H181.84Zm7.71,28.56h6.86c4.47,0,8.74-2.75,8.74-10.5,0-7.07-2.5-11.58-10.11-11.58h-5.49Z"/><path d="M94.72,97.78h7.42c3,0,5,1,5,3.91A3.37,3.37,0,0,1,105,105a3.83,3.83,0,0,1,2.89,4c0,3.2-2.72,4.57-5.57,4.57H94.72Zm3.47,6.39h3.51c1.24,0,2.12-.56,2.12-1.88,0-1.48-1.15-1.81-2.38-1.81H98.19Zm0,6.69h3.71c1.35,0,2.56-.45,2.56-2.08s-1-2.25-2.49-2.25H98.19Z"/><path d="M118.75,107.72l4.42,5.85h-4.24l-4-5.67h-1.7v5.67h-3.49V97.78h7.11c4,0,5.5,2.5,5.5,5.06a4.71,4.71,0,0,1-3.75,4.88Zm-5.5-7.24v4.75H116c1.65,0,3-.38,3-2.39s-1.37-2.36-3-2.36Z"/><path d="M128,110.61h8.9v2.92H124.65V97.72h11.5v2.91H128v3.56h7.2v3.07H128Z"/><path d="M153.75,113.55h-3.44l-2.67-10.73h0L145,113.55h-3.51l-4.17-15.77h3.47L143,108.56l.31,0L146,97.78h3.25L152,108.65l.31,0,2.32-10.89H158Z"/><path d="M158.85,97.78h3.47v15.77h-3.47Z"/><path d="M167.27,102.66v10.91h-3V97.74h4l7,9.85V97.74h2.94v15.83h-2.94Z"/><path d="M194.28,109.58a8.16,8.16,0,1,1-7.16-12.08,8.26,8.26,0,0,1,7.13,4.15c-1.39.7-1.5.77-3,1.54a4.66,4.66,0,0,0-4.09-2.32,4.77,4.77,0,0,0,0,9.54,4.47,4.47,0,0,0,4.17-2.38h-.35l-3.2,0a2.85,2.85,0,0,1-.62,0v-2.92c2.23,0,5.35,0,8.06,0C195.18,105.6,195.09,108.52,194.28,109.58Z"/><path d="M67.25,71.3c-.17-2-.31-4.13-.46-6.14-.23-3.34-.47-6.78-.84-10.19-.34-3-1.09-6.88-3.94-10.13-.07-.21-.17-.65-.23-1a15.38,15.38,0,0,0-.5-1.86,12.45,12.45,0,0,1-.38-1.47,10.7,10.7,0,0,0-2.76-5.77A8,8,0,0,0,55.56,33v0a16.83,16.83,0,0,1-1.17-3.05v-.16a16.45,16.45,0,0,0,.06-3c-.28-2.22-.59-4.46-.9-6.62q-.36-2.51-.69-5a12.77,12.77,0,0,1,0-1.88c.15-3.54-2.09-9-6.06-9.82a8.31,8.31,0,0,0-1.84-.21A8.12,8.12,0,0,0,41.53,4,8.09,8.09,0,0,0,34.82,0a8.45,8.45,0,0,0-4.39,1.31C27,3.37,26.76,6.74,26.6,8.76c0,.2,0,.4-.05.59-.23,2.33-.29,4.66-.36,6.91q0,1.77-.12,3.54c-.08,1.47-.12,2.94-.17,4.41-.09,2.72-.17,5.34-.4,7.9a8.72,8.72,0,0,0-3.18-.59,12.58,12.58,0,0,0-5.82,1.62c-4.17,2.12-5.58,4.87-5.93,7.15l-.62,0A10.29,10.29,0,0,0,1.71,44.4C-.79,47.7.18,63,.2,63.1a14.1,14.1,0,0,0,.34,1.5,7.64,7.64,0,0,1,.21,1c.09,2.25.15,4.55.22,6.77.11,3.8.22,7.73.47,11.62.11,1.72.84,10.55,4.36,15.6A11.54,11.54,0,0,0,8.18,102l.38.31a.51.51,0,0,1,0,.13,66.09,66.09,0,0,1,.24,8.75c0,1.24,0,2.52,0,3.8a8.57,8.57,0,0,0,6.79,8.72h.06a47.51,47.51,0,0,0,7.91,1.5c4.14.33,7.5.49,10.55.49A64.63,64.63,0,0,0,49.78,124c4.47-1.12,6.88-4.2,6.78-8.66l0-.91c-.11-4.54-.22-8.83.72-13.11a56.13,56.13,0,0,1,2.32-5.69A61.71,61.71,0,0,0,63,86.83a28.23,28.23,0,0,0,1.11-2.93,20.08,20.08,0,0,1,1-2.56A19.29,19.29,0,0,0,67.25,71.3ZM7.92,90.74a18.52,18.52,0,0,1-1.8-5.82,20.16,20.16,0,0,1-.52-6.11c.28-3-.46-6-.41-9a17.58,17.58,0,0,1,.29-3.46A3.61,3.61,0,0,0,5,63.1c-.89-1.18.28-3.88,1.58-4.34,1.12-.4,4.37,1.56,4.37,2.73A1.43,1.43,0,0,1,9.74,63c-.92.18-1.81.52-2.83.83a1.83,1.83,0,0,0,2.43.89c2.34-.83,4.55-1.82,7.23-.66.6.26,2.56-.74,3.72-1.54a2.09,2.09,0,0,1,2.1-.5c-.54.92-1.84.56-2.32,1.43.31.67.71.14,1.05.18.61.07,1.38-1,1.78,0,.32.78-1.15.28-1.15,1.25.07.37.41.19.72.09s.73-.21.92.16-.18.84-.49,1c-1.9.92-3.07,2.65-4.59,4a4.15,4.15,0,0,0-1.49,3.11,38.89,38.89,0,0,0,3.82-3.29c1.09-1.2,2.71-1.59,3.76-2.79.52-.59.83.1,1.15.36,3.95,3.22,7.29.78,8.72-3a13.94,13.94,0,0,0,.53-2.6c.22-1.36,2.77-3.65,4.16-3.69.11,0,.25-.24.35.14.32,1.25.44,1.35,1.25.78A17.84,17.84,0,0,1,47,56.59c.52-.11,1.23-.15,1-.93s-.89-.65-1.41-.49c-1.33.41-2.64.91-4,1.41.11-.58.72-.7.53-1.26a1.46,1.46,0,0,0-.55,0C40,55.94,38,57.55,35.74,58.6c-.36.16-.74.52-1.12.21s-.23-.75-.08-1.14A2.76,2.76,0,0,0,34.36,55c-.79-1.16,1.2-.73.84-1.68-.58-.36-1.22.3-1.87.08s-1.53-.29-.91-1.29c.36-.59.07-1-.05-1.56-.62-2.61.63-3.81,3.23-3.15a1.26,1.26,0,0,0,.88-.19c-2.32-.94-3.62-3-5.13-4.72-.75.76.27,1.43-.34,2.17-.67-1.57-.37-3.21-.57-4.74a47.69,47.69,0,0,1-.27-12.86,86.51,86.51,0,0,0,.51-9.81,96.56,96.56,0,0,1,.85-9.77,3.21,3.21,0,0,1,3-3.05,3.43,3.43,0,0,1,3.36,2.24A4.23,4.23,0,0,1,38.57,9c-.88,4.19.52,8.27.47,12.41,0,.89.33,1.93-1.33,1.91-.85,0-.79,2.91.29,3.84a2,2,0,0,1,.64,1.59q.87,6.78,1.78,13.55a2.78,2.78,0,0,1,.16.83L39,41c-.83,1.23,0,2,.47,2.81s1.11,1.39,1.65,2.09c.34.46.75,1,1.32.61s-.22-.77-.22-1.2c0-.19,0-.37.05-.53.85-.31.91.85,1.73.72,0-.2.2-.53.1-.67-2.45-3.47-1.91-7.57-2.25-11.41-.3-3.39-.43-6.8-.82-10.19-.51-4.51.27-9,.83-13.47C42,8.6,43.16,8,44.25,7.72a2.27,2.27,0,0,1,2.56.84A5.89,5.89,0,0,1,48.45,12c0,4.81,1.48,9.43,1.57,14.21,0,1.49-1.05,1.14-1.81,1-.4-.05-.72-.59-1.26-.54s-.88-.08-1,.42.32.5.56.71A12.13,12.13,0,0,0,48,29.26a3.74,3.74,0,0,1,1.8,3.4A7.83,7.83,0,0,0,50,35.52a2.35,2.35,0,0,0,.89-1.93c.34,1.58-.3,2.76-.94,4.09-1.92,4-2.59,8.09-.61,12.33a10.91,10.91,0,0,1,.81,3.15c.24,2,.17,3.8-2.61,3.73-.29,0-.58.3-.87.45.07.55.48.43.76.47.89.12,2.16-.3,2.26,1.11s.07,2.62-1.51,3.23c-.94.36-1.83.9-2.75,1.33-4,1.81-6.5,5.16-9.16,8.45,1.34.64,1.29.61,2.06-.46s2-1.45,2.37-2.75c.07-.25.42-.48.67-.29,1.5,1.18,2-.39,2.8-1,1.22-1,2.33-2.2,4.37-2.52-1.23,1.86-2.92,2.95-3.7,4.7-.19.44-1,.92-.33,1.38s1.55-.33,1.61-.76c.32-2.26,2.37-3.22,3.51-5-.43,2.47,1.54,4.49,1.07,6.93a.5.5,0,0,0,.39.62c.34.06.46-.21.56-.47a2.63,2.63,0,0,0,.26-2,3.24,3.24,0,0,1,.22-3,1.38,1.38,0,0,0,.14-1.16c-1-4.94-1-9.79,1.53-14.36.22-.4.15-.67-.24-.81-2.87-1-3-3.7-3.43-6a10.9,10.9,0,0,1,.45-5.48A3.34,3.34,0,0,1,53.26,37c1.38-.14,1.92,1.18,2.38,2.21s.84,2.45,1.27,3.67c.17.48.36,1-.13,1.3A1.26,1.26,0,0,1,55.25,44a2.45,2.45,0,0,1-1.11-2.28,4.55,4.55,0,0,0-1-3.53c-1,2.25-.49,4.24.28,6.13A2.56,2.56,0,0,0,56.89,46a.81.81,0,0,1,.73.23c.9,2,2.82,3.32,3.25,5.6.81,4.22.88,8.55,1.68,12.75,1.53,8.09-.64,15.24-4.92,22-.78,1.23,0,3-1.6,4-1.78,1.17-2.15,3.35-3.11,5.12a6.76,6.76,0,0,1-4,2.78c-1.28.47-2.63.72-3.94,1.06-.47.12-1.4-.23-.79.94.1.18-.67.33-1.07-.28-.89-1.37-1.11-1.34-2,.09a1.64,1.64,0,0,1-1.57.74A20.69,20.69,0,0,1,36,99.88c-.55-.2-.72-1.26-1.43-.93-.86.39-.24,1.33-.38,2.3-2.12-1.3-2.51-3.51-3.76-5.07-.78.67-.17,1.52-.57,2.15-2.26-1.9-1.49-4.88-2.47-7.27-1,.48-.51,1.39-.85,2.1-2-3.33.4-6.43.14-9.59-1.09,2.5-2.32,4.94-2,7.76a3.64,3.64,0,0,0,1.69,3.11A2.32,2.32,0,0,1,27.54,96c.42,1.76,1.08,3.34,3.19,3.75.42.09.73.75,1.09,1.14a4.31,4.31,0,0,0,3.33,1.77,1.39,1.39,0,0,1,.8.12c3.15,2.35,6.26,1.36,9.39,0,.15-.07.38,0,1,.07L40.11,106c-.18.09-.4.11-.59.19a1.89,1.89,0,0,0-1.1,1.61c0,.28.19.48.5.55a1.65,1.65,0,0,0,1.61-.65c.65-.67,1.53-1.8,2.36-1.11,1.33,1.12,2.16.26,3.26-.13,1.76-.62,2.29-2.5,3.74-3.41.51-.32-.16-.53-.16-.75,0-.91.85-1,1.44-1s.52.52.37,1.1a11.83,11.83,0,0,0,0,5.23c.56,2.71,0,5.45.54,8.17.34,1.68-1.39,3.58-3,3.87-5.51,1-11.06,2-16.66,1.61-5.22-.32-10.52-.15-15.63-1.58a4.24,4.24,0,0,1-3.33-3.94c-.29-3.88.36-7.8-.37-11.67-.13-.73.34-.82.89-.56a6.82,6.82,0,0,1,1.43.78c3.31,2.65,7.2,2.18,11,2a1.84,1.84,0,0,0,1.68-1.14c-2.43-.38-5.16,0-6.43-2.85-.75,1.23.4,1.68.51,2.68-2.82-.69-4.3-2.65-5.69-4.89-.27,1.44-.27,1.44,1.48,3.65-3.54-.72-3.23-4-4.09-6.82-1.38,1.7.4,3-.12,4.41-1.89-1.72-1.62-3.87-1.67-5.93,0-.68.11-1.37.08-2,0-.5.2-1.27-.53-1.36s-.32.89-.77,1.16c.07-1.56.15-3.12.23-4.88-1.44,1-1,2.66-1.82,3.94.22-1.9.43-3.64.69-5.82C8.55,87.79,9.1,89.57,7.92,90.74Zm14.89-33c1.26-1.32,3.17-.06,4.05-1.85-1.39.41-2.58-.73-4.18.19.54-1.3.47-2.54,2.26-2.44a2,2,0,0,0,2.15-2c-2-.32-3.27,1.88-5.42,1.59.44-.57,1.34-.4,1.49-1.09-4.75-1-4.77-5.47-6.39-8.75-.51-1,.23-2.62-1.55-3.08-.37-.09,0-.59.2-.82a10.62,10.62,0,0,1,5.66-3.45c3-.57,4.1.9,5.45,3.64,2.54,5.15,2.25,11,4.8,16.19,1.29,2.62,2.2,6,.87,9.2-3.27,3.2-4.85,2.93-7-1.21-.25-.63-.45-1.29-.75-1.9-.8-1.65-.78-2.81,1.75-2.56A4.21,4.21,0,0,0,22.81,57.73ZM7.91,50.61c-.64.27-.64-.29-.58-.7.09-.64.77-1.14.46-1.9-.9-.09-1.58,1.85-2.38.5-.58-1,.37-2,1.22-2.75,1.43-1.21,3.15-1.15,4.87-1.08a2,2,0,0,1,1.63.72c.51.82-1,.56-.76,1.5,2.57.29,3.51,2.08,4.22,4.52.53,1.81,2,3.34,2.38,5.34s.63,3.62-1.18,4.73c-1.38.84-4.48-.21-5.51-1.7-1.18-1.69-1.52-3.83-3-5.41-.54-.6-.34-1.49-.15-2.34S9.83,49.79,7.91,50.61Z"/><path d="M25.23,63.84c.82.82,1.1,2.21,2.55,2.46.27-.77-.2-1.21-.53-1.69a1.64,1.64,0,0,1,.61-2.7,1.81,1.81,0,0,1,2.85.87c.41.78.26,2,1.46,2.27a18.87,18.87,0,0,0,.15-2.24c-.08-2.66-2.17-3.82-4.46-2.52-.4.23-.84.4-1.6.75.67-.64,1.23-.93,1.22-1.7C24.75,60,24.86,61.86,25.23,63.84Z"/></svg>